<svg width="268" height="73" viewBox="0 0 268 73" fill="none" xmlns="http://www.w3.org/2000/svg">
<path fill-rule="evenodd" clip-rule="evenodd" d="M6.64654 12.3494C5.4312 16.8339 4.17418 23.0258 2.89632 31.3335L0 30.8845C1.28645 22.521 2.56321 16.2096 3.81869 11.5771C5.06157 6.99097 6.32199 3.89695 7.65179 2.09942C8.32116 1.1946 9.11458 0.471508 10.0743 0.160286C11.1062 -0.174365 12.0895 0.0427344 12.9106 0.554621C13.6838 1.03661 14.3286 1.78222 14.8724 2.59798C15.4261 3.42882 15.9365 4.42644 16.4077 5.51685C18.2772 9.84274 19.7818 16.2322 20.8127 21.445C21.332 24.0708 21.7376 26.4326 22.0134 28.1382C22.1513 28.9913 22.2569 29.681 22.3282 30.1584C22.3638 30.3971 22.3909 30.5828 22.4091 30.7093L22.4298 30.854L22.4368 30.9043C22.4369 30.905 22.437 30.9055 20.9858 31.109C22.4433 30.9572 22.4433 30.9573 22.4433 30.9576L22.4479 31.0016L22.4625 31.1383C22.4756 31.2591 22.4953 31.4384 22.5215 31.6701C22.574 32.1335 22.6527 32.8063 22.7573 33.6402C22.9666 35.3086 23.279 37.6182 23.6916 40.183C24.5231 45.3523 25.7403 51.4184 27.2952 55.3942C27.6803 56.3791 28.071 57.1951 28.4592 57.8199C28.8577 58.4612 29.1957 58.8064 29.4366 58.9626C29.623 59.0835 29.6896 59.0624 29.7526 59.0418C29.8966 58.9948 30.2397 58.8032 30.742 58.1424C31.7512 56.8145 32.9598 54.1882 34.3073 49.6903C35.6416 45.2365 37.0727 39.0883 38.5941 30.8411C40.1257 22.5383 41.5953 16.2722 43.0004 11.6727C44.392 7.11729 45.7627 4.04849 47.1672 2.26961C47.8748 1.37335 48.6933 0.67243 49.6562 0.372443C50.6866 0.0514446 51.6696 0.254409 52.5013 0.764433C53.2846 1.24476 53.9311 1.98963 54.4714 2.80495C55.0209 3.63432 55.5206 4.62891 55.977 5.71399C57.7867 10.0165 59.1674 16.3664 60.0914 21.5409C60.557 24.1484 60.9128 26.4938 61.1521 28.1873C61.2719 29.0345 61.3626 29.7194 61.4235 30.1936C61.454 30.4307 61.477 30.6151 61.4925 30.7408L61.51 30.8846L61.5139 30.9175L61.5181 30.9464L61.5377 31.082C61.5552 31.2018 61.5815 31.3797 61.6164 31.6097C61.686 32.0695 61.7898 32.7372 61.9256 33.5647C62.1973 35.2205 62.5969 37.5126 63.1078 40.058C64.1374 45.1878 65.5933 51.2083 67.3244 55.1552C67.7532 56.1329 68.1827 56.9449 68.6045 57.5683C69.036 58.2061 69.4026 58.5613 69.674 58.728C69.8987 58.866 69.9981 58.8471 70.0776 58.8217C70.2257 58.7744 70.5639 58.5877 71.0484 57.9424C72.0281 56.6376 73.1741 54.0445 74.4017 49.5817C75.6165 45.1651 76.8732 39.0659 78.1509 30.8812L81.0462 31.3367C79.7597 39.578 78.4826 45.7983 77.2266 50.3647C75.9833 54.8848 74.7215 57.9381 73.3887 59.7132C72.717 60.6078 71.9229 61.3195 70.9665 61.6251C69.9415 61.9525 68.9643 61.7411 68.1444 61.2375C67.3712 60.7626 66.7252 60.0269 66.18 59.2211C65.6251 58.4008 65.114 57.4162 64.6422 56.3407C62.7711 52.0746 61.2658 45.7756 60.2349 40.6391C59.7155 38.0514 59.3098 35.7238 59.034 34.043C58.896 33.2023 58.7903 32.5225 58.719 32.052C58.6834 31.8167 58.6563 31.6337 58.6381 31.5089L58.6174 31.3663L58.6121 31.3291L58.6103 31.3167C58.6102 31.3159 58.6102 31.3155 60.061 31.109C58.6058 31.2821 58.6058 31.2821 58.6058 31.2818L58.6056 31.2799L58.6006 31.2379L58.5839 31.1014C58.5691 30.9807 58.5467 30.8015 58.517 30.5699C58.4574 30.1068 58.3684 29.4342 58.2505 28.6006C58.0148 26.9328 57.6646 24.6239 57.2068 22.06C56.2839 16.8916 54.9477 10.83 53.2772 6.85833C52.8635 5.87484 52.4455 5.05943 52.0313 4.43434C51.6077 3.79519 51.2445 3.44114 50.9736 3.27504C50.7512 3.13864 50.6357 3.14767 50.5248 3.18221C50.3465 3.23776 49.9812 3.44183 49.4639 4.097C48.4186 5.42097 47.1753 8.04074 45.8022 12.5353C44.4427 16.9858 42.9969 23.1311 41.4758 31.3768C39.9444 39.6782 38.4907 45.9414 37.1138 50.5376C35.75 55.0896 34.421 58.1519 33.072 59.9269C32.3951 60.8175 31.604 61.5309 30.6592 61.8395C29.6334 62.1744 28.6569 61.9594 27.8464 61.4338C27.0904 60.9436 26.4778 60.1899 25.9726 59.3768C25.4571 58.5471 24.9911 57.5531 24.5673 56.4694C22.8862 52.1709 21.6307 45.8256 20.7984 40.652C20.3791 38.0454 20.062 35.7008 19.8496 34.0078C19.7434 33.1609 19.6633 32.4762 19.6096 32.0023C19.5828 31.7654 19.5625 31.581 19.549 31.4554L19.5336 31.3118L19.5312 31.2886L19.5282 31.2678L19.5086 31.1301C19.4911 31.0084 19.4647 30.8278 19.4299 30.5944C19.3602 30.1275 19.2564 29.4496 19.1206 28.6096C18.8488 26.9288 18.4492 24.6019 17.9382 22.0179C16.9085 16.8113 15.452 10.6974 13.7192 6.68771C13.2898 5.69423 12.8595 4.86843 12.4367 4.23404C12.0038 3.58456 11.636 3.22311 11.3645 3.05388C11.141 2.91455 11.0477 2.93628 10.9752 2.9598C10.8304 3.00675 10.4914 3.19536 10.0046 3.85346C9.02192 5.18176 7.87448 7.81845 6.64654 12.3494ZM60.061 31.109L58.6058 31.2818L58.6078 31.2988L58.6102 31.3155L60.061 31.109ZM20.9858 31.109L22.4433 30.9576L22.4406 30.9313L22.437 30.9055L20.9858 31.109Z" fill="#3C8DBC"/>
<path d="M103.003 33.7958H104.895V59.4387C102.849 59.4387 101.059 59.3533 99.5251 59.1828C97.9908 59.0122 96.3883 58.6539 94.7177 58.1079C93.0811 57.5279 91.7344 56.7601 90.6774 55.8047C89.6204 54.8492 88.751 53.5356 88.0691 51.8636C87.3872 50.1575 87.0463 48.2465 87.0463 46.131C87.0463 44.0155 87.2508 42.2069 87.66 40.7056C88.1032 39.1701 88.6487 37.9587 89.2965 37.0716C89.9784 36.1503 90.7285 35.3995 91.5468 34.8195C92.9788 33.7617 94.3938 33.2328 95.7917 33.2328C98.3488 33.2328 100.753 34.4442 103.003 36.8668V33.7958ZM88.9385 45.8751C88.9385 50.3451 90.3194 53.4502 93.0811 55.1905C95.536 56.726 98.8432 57.4937 103.003 57.4937V39.426C101.844 38.0952 100.718 37.0546 99.6274 36.3038C98.5704 35.5191 97.3941 35.1266 96.0985 35.1266C93.9505 35.1266 92.2117 36.0821 90.882 37.9929C89.5864 39.8696 88.9385 42.497 88.9385 45.8751ZM118.446 59.3875L109.036 33.7958H110.928L119.367 56.3165L127.498 33.7958H129.39L120.338 59.3875H118.446ZM149.748 57.5449V59.4387C147.703 59.4387 145.896 59.3533 144.327 59.1828C142.793 59.0122 141.19 58.6539 139.52 58.1079C137.849 57.5279 136.468 56.7601 135.377 55.8047C134.32 54.8492 133.434 53.5356 132.718 51.8636C132.036 50.1575 131.695 48.1442 131.695 45.8239C131.695 43.4695 132.002 41.4221 132.616 39.6819C133.263 37.9417 134.082 36.6279 135.071 35.7408C136.912 34.1029 138.702 33.284 140.44 33.284C143.338 33.284 145.589 34.1371 147.191 35.8432C148.828 37.5492 149.646 39.8013 149.646 42.5994C149.646 44.4761 149.629 45.568 149.595 45.8751H133.587C133.587 50.2769 134.9 53.3308 137.525 55.0369C140.151 56.709 144.225 57.5449 149.748 57.5449ZM147.754 43.9813V42.8553C147.754 40.6032 147.106 38.7606 145.81 37.3275C144.549 35.8943 142.861 35.1778 140.747 35.1778C138.667 35.1778 137.014 36.0137 135.787 37.6858C134.593 39.3236 133.877 41.4222 133.639 43.9813H147.754ZM157.451 59.3875H155.559V21.0512H157.451V59.3875ZM181.113 57.5449V59.4387C179.068 59.4387 177.26 59.3533 175.692 59.1828C174.158 59.0122 172.555 58.6539 170.885 58.1079C169.214 57.5279 167.833 56.7601 166.742 55.8047C165.685 54.8492 164.799 53.5356 164.083 51.8636C163.401 50.1575 163.06 48.1442 163.06 45.8239C163.06 43.4695 163.367 41.4221 163.981 39.6819C164.628 37.9417 165.447 36.6279 166.435 35.7408C168.276 34.1029 170.066 33.284 171.805 33.284C174.703 33.284 176.954 34.1371 178.556 35.8432C180.193 37.5492 181.011 39.8013 181.011 42.5994C181.011 44.4761 180.994 45.568 180.96 45.8751H164.952C164.952 50.2769 166.265 53.3308 168.89 55.0369C171.515 56.709 175.59 57.5449 181.113 57.5449ZM179.119 43.9813V42.8553C179.119 40.6032 178.471 38.7606 177.175 37.3275C175.914 35.8943 174.226 35.1778 172.112 35.1778C170.032 35.1778 168.379 36.0137 167.151 37.6858C165.958 39.3236 165.242 41.4222 165.003 43.9813H179.119ZM202.625 59.3875L202.676 45.8751C202.676 43.0088 201.977 40.5179 200.579 38.4023C199.215 36.2526 197.493 35.1778 195.414 35.1778C193.368 35.1778 191.101 36.5939 188.612 39.426V59.3875H186.719V33.7958H188.612V36.8668C190.828 34.4782 193.231 33.284 195.823 33.284C197.562 33.284 199.369 34.1029 201.244 35.7408C202.199 36.6279 202.983 37.9417 203.596 39.6819C204.244 41.4221 204.568 43.4695 204.568 45.8239L204.517 59.3875H202.625ZM225.866 33.7958H227.758V60.2576C227.758 62.6121 227.468 64.6594 226.888 66.3996C226.308 68.174 225.575 69.4876 224.689 70.3407C222.95 72.0128 221.228 72.8487 219.523 72.8487C217.239 72.8487 215.091 71.8932 213.079 69.9824V67.5256C215.227 69.8119 217.358 70.9549 219.472 70.9549C221.586 70.9549 223.172 69.9313 224.229 67.8839C225.32 65.8708 225.866 63.3116 225.866 60.2064V59.3875C219.762 59.1486 215.5 57.8178 213.079 55.3952C210.966 53.2113 209.909 50.0209 209.909 45.8239C209.909 40.6714 211.409 37.0034 214.409 34.8195C215.841 33.7617 217.256 33.2328 218.654 33.2328C221.211 33.2328 223.615 34.4442 225.866 36.8668V33.7958ZM218.961 35.1266C216.949 35.1266 215.245 36.2014 213.847 38.3511C212.483 40.5008 211.801 42.8553 211.801 45.4144C211.801 47.9394 212.159 49.9868 212.875 51.5564C213.591 53.1261 214.614 54.3374 215.943 55.1905C218.398 56.726 221.706 57.4937 225.866 57.4937V39.426C224.706 38.0952 223.581 37.0546 222.49 36.3038C221.433 35.5191 220.257 35.1266 218.961 35.1266ZM237.677 35.6896H231.795V33.7958H237.677V25.3506H239.569V33.7958H245.502V35.6896H239.569V59.3875H237.677V35.6896ZM265.454 59.3875L265.505 45.8751C265.505 43.0088 264.807 40.5008 263.408 38.3511C262.046 36.2014 260.358 35.1266 258.345 35.1266C257.05 35.1266 255.857 35.5191 254.765 36.3038C253.709 37.0546 252.601 38.0952 251.441 39.426V59.3875H249.549V21H251.441V36.8668C253.691 34.4442 256.095 33.2328 258.652 33.2328C260.051 33.2328 261.465 33.7617 262.897 34.8195C265.898 37.0034 267.398 40.6714 267.398 45.8239L267.346 59.3875H265.454Z" fill="#3C8DBC"/>
<path fill-rule="evenodd" clip-rule="evenodd" d="M8.69281 12.3494C7.47746 16.8339 6.22045 23.0258 4.94258 31.3335L2.04626 30.8845C3.33271 22.521 4.60948 16.2096 5.86495 11.5771C7.10784 6.99097 8.36826 3.89695 9.69805 2.09942C10.3674 1.1946 11.1608 0.471508 12.1206 0.160286C13.1525 -0.174365 14.1357 0.0427344 14.9569 0.554621C15.73 1.03661 16.3749 1.78222 16.9186 2.59798C17.4724 3.42882 17.9827 4.42644 18.454 5.51685C20.3234 9.84274 21.8281 16.2322 22.859 21.445C23.3783 24.0708 23.7838 26.4326 24.0596 28.1382C24.1976 28.9913 24.3032 29.681 24.3744 30.1584C24.4101 30.3971 24.4371 30.5828 24.4553 30.7093L24.476 30.854L24.4831 30.9043C24.4832 30.905 24.4833 30.9055 23.032 31.109C24.4895 30.9572 24.4895 30.9573 24.4896 30.9576L24.4942 31.0016L24.5088 31.1383C24.5219 31.2591 24.5415 31.4384 24.5678 31.6701C24.6202 32.1335 24.6989 32.8063 24.8035 33.6402C25.0128 35.3086 25.3253 37.6182 25.7379 40.183C26.5694 45.3523 27.7866 51.4184 29.3415 55.3942C29.7266 56.3791 30.1173 57.1951 30.5055 57.8199C30.9039 58.4612 31.242 58.8064 31.4828 58.9626C31.6693 59.0835 31.7359 59.0624 31.7989 59.0418C31.9428 58.9948 32.286 58.8032 32.7883 58.1424C33.7975 56.8145 35.006 54.1882 36.3535 49.6903C37.6878 45.2365 39.119 39.0883 40.6404 30.8411C42.172 22.5383 43.6416 16.2722 45.0467 11.6727C46.4383 7.11729 47.8089 4.04849 49.2134 2.26961C49.9211 1.37335 50.7396 0.67243 51.7025 0.372443C52.7328 0.0514446 53.7159 0.254409 54.5476 0.764433C55.3309 1.24476 55.9774 1.98963 56.5176 2.80495C57.0672 3.63432 57.5669 4.62891 58.0233 5.71399C59.8329 10.0165 61.2137 16.3664 62.1377 21.5409C62.6033 24.1484 62.959 26.4938 63.1984 28.1873C63.3181 29.0345 63.4089 29.7194 63.4698 30.1936C63.5002 30.4307 63.5233 30.6151 63.5387 30.7408L63.5563 30.8846L63.5602 30.9175L63.5643 30.9464L63.584 31.082C63.6015 31.2018 63.6278 31.3797 63.6626 31.6097C63.7323 32.0695 63.8361 32.7372 63.9719 33.5647C64.2436 35.2205 64.6431 37.5126 65.154 40.058C66.1837 45.1878 67.6395 51.2083 69.3707 55.1552C69.7995 56.1329 70.229 56.9449 70.6507 57.5683C71.0822 58.2061 71.4488 58.5613 71.7202 58.728C71.945 58.866 72.0443 58.8471 72.1239 58.8217C72.2719 58.7744 72.6102 58.5877 73.0947 57.9424C74.0744 56.6376 75.2204 54.0445 76.4479 49.5817C77.6627 45.1651 78.9195 39.0659 80.1972 30.8812L83.0925 31.3367C81.8059 39.578 80.5289 45.7983 79.2729 50.3647C78.0296 54.8848 76.7678 57.9381 75.435 59.7132C74.7633 60.6078 73.9691 61.3195 73.0127 61.6251C71.9877 61.9525 71.0106 61.7411 70.1907 61.2375C69.4175 60.7626 68.7714 60.0269 68.2263 59.2211C67.6714 58.4008 67.1602 57.4162 66.6885 56.3407C64.8174 52.0746 63.3121 45.7756 62.2811 40.6391C61.7617 38.0514 61.3561 35.7238 61.0802 34.043C60.9422 33.2023 60.8366 32.5225 60.7653 32.052C60.7297 31.8167 60.7026 31.6337 60.6844 31.5089L60.6637 31.3663L60.6584 31.3291L60.6566 31.3167C60.6565 31.3159 60.6564 31.3155 62.1072 31.109C60.6521 31.2821 60.6521 31.2821 60.6521 31.2818L60.6519 31.2799L60.6468 31.2379L60.6302 31.1014C60.6153 30.9807 60.593 30.8015 60.5632 30.5699C60.5037 30.1068 60.4146 29.4342 60.2968 28.6006C60.0611 26.9328 59.7109 24.6239 59.253 22.06C58.3301 16.8916 56.9939 10.83 55.3234 6.85833C54.9098 5.87484 54.4917 5.05943 54.0775 4.43434C53.654 3.79519 53.2907 3.44114 53.0199 3.27504C52.7974 3.13864 52.682 3.14767 52.5711 3.18221C52.3928 3.23776 52.0274 3.44183 51.5101 4.097C50.4648 5.42097 49.2215 8.04074 47.8485 12.5353C46.4889 16.9858 45.0431 23.1311 43.522 31.3768C41.9907 39.6782 40.5369 45.9414 39.16 50.5376C37.7963 55.0896 36.4672 58.1519 35.1182 59.9269C34.4414 60.8175 33.6502 61.5309 32.7055 61.8395C31.6797 62.1744 30.7031 61.9594 29.8927 61.4338C29.1367 60.9436 28.524 60.1899 28.0188 59.3768C27.5034 58.5471 27.0373 57.5531 26.6135 56.4694C24.9325 52.1709 23.6769 45.8256 22.8447 40.652C22.4254 38.0454 22.1082 35.7008 21.8959 34.0078C21.7896 33.1609 21.7095 32.4762 21.6559 32.0023C21.629 31.7654 21.6088 31.581 21.5952 31.4554L21.5799 31.3118L21.5774 31.2886L21.5745 31.2678L21.5548 31.1301C21.5373 31.0084 21.511 30.8278 21.4762 30.5944C21.4065 30.1275 21.3027 29.4496 21.1668 28.6096C20.8951 26.9288 20.4955 24.6019 19.9844 22.0179C18.9547 16.8113 17.4982 10.6974 15.7654 6.68771C15.3361 5.69423 14.9058 4.86843 14.4829 4.23404C14.05 3.58456 13.6822 3.22311 13.4108 3.05388C13.1873 2.91455 13.094 2.93628 13.0214 2.9598C12.8767 3.00675 12.5377 3.19536 12.0508 3.85346C11.0682 5.18176 9.92074 7.81845 8.69281 12.3494ZM62.1072 31.109L60.6521 31.2818L60.6541 31.2988L60.6564 31.3155L62.1072 31.109ZM23.032 31.109L24.4896 30.9576L24.4869 30.9313L24.4833 30.9055L23.032 31.109Z" fill="#3C8DBC"/>
</svg>
