<svg width="40" height="33" viewBox="0 0 40 33" fill="none" xmlns="http://www.w3.org/2000/svg">
<path fill-rule="evenodd" clip-rule="evenodd" d="M3.28037 6.57306C2.71425 8.82581 2.12982 11.8881 1.5357 15.9426C1.47671 16.3452 1.09893 16.6222 0.697608 16.5551V16.5551C0.309655 16.4903 0.0442691 16.127 0.101212 15.7379C0.701884 11.6324 1.298 8.49663 1.8847 6.16199C2.49812 3.721 3.12019 2.07418 3.77651 1.11743C4.10687 0.635835 4.49846 0.250964 4.97212 0.0853134C5.48144 -0.0928073 5.96671 0.0227458 6.37197 0.295202C7.2443 0.881671 7.72166 1.99736 8.09795 2.93639C9.02061 5.23888 9.76321 8.63971 10.272 11.4143C10.8786 14.722 11.1972 18.0645 11.6929 21.3877C12.1033 24.1391 12.704 27.3679 13.4714 29.484C13.5877 29.8046 14.1444 31.6156 14.6843 31.4255C14.7553 31.4005 14.9247 31.2985 15.1726 30.9468C15.6707 30.24 16.2671 28.8421 16.9322 26.4481C17.5907 24.0775 18.2971 20.8051 19.0479 16.4154C19.8039 11.9962 20.5292 8.66103 21.2226 6.2129C21.9095 3.78823 22.586 2.15484 23.2791 1.20802C23.902 0.357299 24.9162 -0.251546 25.9118 0.406876C26.2984 0.662535 26.6175 1.059 26.8841 1.49296C27.1553 1.93439 27.402 2.46377 27.6272 3.04132C28.5203 5.33138 29.2018 8.71113 29.6578 11.4653C29.8876 12.8532 30.0632 14.1015 30.1813 15.0029C30.3067 15.9593 30.418 16.9114 30.5631 17.8651C31.1493 21.7173 31.7548 25.7354 33.2276 29.3568C33.5247 30.0873 34.2091 32.0706 35.0656 30.8403C35.5491 30.1458 36.1148 28.7656 36.7206 26.3902C37.286 24.1736 37.8697 21.1607 38.4632 17.1717C38.5231 16.7691 38.9016 16.4929 39.3029 16.561V16.561C39.6906 16.6267 39.9551 16.9904 39.8973 17.3794C39.2971 21.4202 38.7013 24.5076 38.1148 26.807C37.5012 29.2129 36.8785 30.838 36.2207 31.7828C35.1761 33.2832 33.6186 33.0445 32.6628 31.5209C32.389 31.0843 32.1367 30.5603 31.9039 29.9878C30.3812 26.2439 29.742 22.1023 29.1359 18.1197C28.3967 13.2617 28.0972 8.27226 26.2947 3.6504C26.0905 3.12693 25.8842 2.69292 25.6798 2.36021C25.5664 2.17565 25.2394 1.59192 24.9363 1.69376C24.8483 1.72332 24.668 1.83194 24.4127 2.18066C23.8968 2.88536 23.2831 4.27975 22.6055 6.67201C21.9345 9.04081 21.2209 12.3117 20.4702 16.7006C19.7144 21.119 18.9969 24.4527 18.3173 26.899C17.6443 29.3219 16.9883 30.9518 16.3225 31.8966C15.7243 32.7455 14.7221 33.383 13.7435 32.6987C12.897 32.1067 12.4632 30.9886 12.1251 30.0563C11.2954 27.7684 10.6757 24.391 10.265 21.6374C9.77204 18.3326 9.45648 15.0084 8.8533 11.7192C8.3451 8.94794 7.62624 5.69377 6.77103 3.55959C6.62919 3.20563 6.01778 1.36518 5.41674 1.57538C5.34529 1.60037 5.178 1.70076 4.93771 2.05104C4.45273 2.75804 3.88641 4.16143 3.28037 6.57306Z" fill="white"/>
</svg>
